<?xml version="1.0" encoding="utf-8"?>
<!-- Generator: Adobe Illustrator 18.1.1, SVG Export Plug-In . SVG Version: 6.00 Build 0)  -->
<!DOCTYPE svg PUBLIC "-//W3C//DTD SVG 1.1//EN" "http://www.w3.org/Graphics/SVG/1.1/DTD/svg11.dtd">
<svg version="1.1" id="Layer_1" xmlns="http://www.w3.org/2000/svg" xmlns:xlink="http://www.w3.org/1999/xlink" x="0px" y="0px"
	 viewBox="0 0 59 59" enable-background="new 0 0 59 59" xml:space="preserve">
<g>
	<path fill="#FFFFFF" d="M29.5,0C13.2,0,0,13.2,0,29.5S13.2,59,29.5,59S59,45.8,59,29.5S45.8,0,29.5,0z M29.5,58
		C13.8,58,1,45.2,1,29.5S13.8,1,29.5,1S58,13.8,58,29.5S45.2,58,29.5,58z"/>
	<path fill="#FFFFFF" d="M46,23c-0.2-0.2-0.5-0.2-0.7,0c-0.3,0.3-0.9,0.3-1.2,0c-0.3-0.3-0.3-0.9,0-1.2c0.2-0.2,0.2-0.5,0-0.7
		l-0.7-0.7c-0.2-0.2-0.5-0.2-0.7,0c-0.3,0.3-0.9,0.3-1.2,0c-0.3-0.3-0.3-0.9,0-1.2c0.2-0.2,0.2-0.5,0-0.7l-0.7-0.7
		c-0.2-0.2-0.5-0.2-0.7,0c-0.3,0.3-0.9,0.3-1.2,0c-0.2-0.2-0.3-0.4-0.3-0.6s0.1-0.5,0.3-0.6c0.2-0.2,0.2-0.5,0-0.7L37.9,15
		c-0.2-0.2-0.5-0.2-0.7,0c-0.3,0.3-0.9,0.3-1.2,0c-0.2-0.2-0.3-0.4-0.3-0.6s0.1-0.5,0.3-0.6c0.2-0.2,0.2-0.5,0-0.7l-1.4-1.5
		c-0.1-0.1-0.2-0.1-0.4-0.1s-0.3,0.1-0.4,0.1L11.6,33.8c-0.1,0.1-0.1,0.2-0.1,0.4s0.1,0.3,0.1,0.4L13,36c0.2,0.2,0.5,0.2,0.7,0
		c0.3-0.3,0.9-0.3,1.2,0c0.2,0.2,0.3,0.4,0.3,0.6S15.1,37,15,37.2c-0.1,0.1-0.1,0.2-0.1,0.4s0.1,0.3,0.1,0.4l0.7,0.7
		c0.2,0.2,0.5,0.2,0.7,0c0.3-0.3,0.9-0.3,1.2,0c0.2,0.2,0.3,0.4,0.3,0.6s-0.1,0.5-0.3,0.6c-0.1,0.1-0.1,0.2-0.1,0.4s0.1,0.3,0.1,0.4
		l0.7,0.7c0.2,0.2,0.5,0.2,0.7,0c0.3-0.3,0.9-0.3,1.2,0c0.2,0.2,0.3,0.4,0.3,0.6s-0.1,0.5-0.3,0.6c-0.1,0.1-0.1,0.2-0.1,0.4
		s0.1,0.3,0.1,0.4l0.7,0.7c0.2,0.2,0.5,0.2,0.7,0c0.3-0.3,0.9-0.3,1.2,0c0.2,0.2,0.3,0.4,0.3,0.6s-0.1,0.5-0.3,0.6
		c-0.1,0.1-0.1,0.2-0.1,0.4S23,45.9,23,46l1.5,1.5c0.1,0.1,0.2,0.1,0.4,0.1s0.3,0,0.4-0.1l22.2-22.2c0.2-0.2,0.2-0.5,0-0.7L46,23z
		 M24.8,46.4l-0.8-0.8c0.2-0.3,0.2-0.6,0.2-0.9c0-0.5-0.2-1-0.6-1.3c-0.6-0.6-1.6-0.7-2.3-0.3l-0.1-0.1c0.2-0.3,0.2-0.6,0.2-0.9
		c0-0.5-0.2-1-0.6-1.3c-0.6-0.6-1.6-0.7-2.3-0.3l-0.1-0.1c0.2-0.3,0.2-0.6,0.2-0.9c0-0.5-0.2-1-0.6-1.3c-0.6-0.6-1.6-0.7-2.3-0.3
		L16,37.5c0.2-0.3,0.2-0.6,0.2-0.9c0-0.5-0.2-1-0.6-1.3c-0.6-0.6-1.6-0.7-2.3-0.3l-0.8-0.8l21.5-21.5l0.8,0.8
		c-0.2,0.3-0.2,0.6-0.2,0.9c0,0.5,0.2,1,0.6,1.3c0.6,0.6,1.6,0.7,2.3,0.3l0.1,0.1c-0.2,0.3-0.2,0.6-0.2,0.9c0,0.5,0.2,1,0.6,1.3
		c0.6,0.6,1.6,0.7,2.3,0.3l0.1,0.1c-0.4,0.7-0.3,1.6,0.3,2.3c0.6,0.6,1.6,0.7,2.3,0.3l0.1,0.1c-0.4,0.7-0.3,1.6,0.3,2.3
		c0.6,0.6,1.6,0.7,2.3,0.3l0.8,0.8L24.8,46.4z"/>
	<path fill="#FFFFFF" d="M24.7,29.9c-0.9,0-1.7,0.3-2.5,1.1c-0.8,0.8-1.2,1.6-1.1,2.5c0,0.9,0.5,1.8,1.4,2.6
		c0.9,0.9,1.7,1.3,2.6,1.4c0.9,0,1.7-0.3,2.5-1.1c0.8-0.8,1.2-1.6,1.1-2.5c0-0.9-0.5-1.8-1.4-2.6C26.5,30.4,25.6,30,24.7,29.9z
		 M26.8,35.7c-0.5,0.5-1.1,0.7-1.7,0.7s-1.2-0.4-1.9-1.1c-0.6-0.6-1-1.3-1.1-1.9c-0.1-0.6,0.2-1.1,0.7-1.7c0.5-0.5,1.1-0.7,1.6-0.7
		c0.6,0.1,1.2,0.4,1.9,1.1c0.7,0.7,1,1.3,1.1,1.9S27.3,35.2,26.8,35.7z"/>
	<path fill="#FFFFFF" d="M29,24.3l2.8,2.8c0.2,0.2,0.5,0.5,0.8,0.8c0.4,0.3,0.6,0.5,0.6,0.6l0,0l-6.7-1.6l-1,1l5.2,5.2l0.8-0.8
		l-2.7-2.7c-0.4-0.4-0.8-0.8-1.3-1.2l-0.3-0.2l0,0l6.8,1.6l1.1-1.1l-5.2-5.2L29,24.3z"/>
	<polygon fill="#FFFFFF" points="36.2,26.2 34.6,24.5 36.6,22.5 35.8,21.8 33.9,23.8 32.4,22.4 34.5,20.3 33.8,19.5 30.9,22.5 
		36.1,27.7 39.1,24.8 38.3,24.1 	"/>
</g>
</svg>
