<?xml version="1.0" encoding="utf-8"?>
<!-- Generator: Adobe Illustrator 18.1.1, SVG Export Plug-In . SVG Version: 6.00 Build 0)  -->
<!DOCTYPE svg PUBLIC "-//W3C//DTD SVG 1.1//EN" "http://www.w3.org/Graphics/SVG/1.1/DTD/svg11.dtd">
<svg version="1.1" id="Layer_1" xmlns="http://www.w3.org/2000/svg" xmlns:xlink="http://www.w3.org/1999/xlink" x="0px" y="0px"
	 viewBox="0 0 59 59" enable-background="new 0 0 59 59" xml:space="preserve">
<g>
	<path fill="#FFFFFF" d="M29.5,0C13.2,0,0,13.2,0,29.5S13.2,59,29.5,59S59,45.8,59,29.5S45.8,0,29.5,0z M29.5,58
		C13.8,58,1,45.2,1,29.5S13.8,1,29.5,1S58,13.8,58,29.5S45.2,58,29.5,58z"/>
	<path fill="#FFFFFF" d="M21.9,25.8c2.2,0,3.9-1.8,3.9-3.9c0-1-0.4-2-1.1-2.7l5.8-5.8c0.2-0.2,0.2-0.5,0-0.7s-0.5-0.2-0.7,0L24,18.5
		c-0.6-0.4-1.3-0.6-2.1-0.6c-2.2,0-3.9,1.8-3.9,3.9C18,24,19.7,25.8,21.9,25.8z M21.9,18.9c1.6,0,2.9,1.3,2.9,2.9
		c0,1.6-1.3,2.9-2.9,2.9S19,23.5,19,21.9C19,20.2,20.3,18.9,21.9,18.9z"/>
	<path fill="#FFFFFF" d="M37.1,33.1c-2.2,0-3.9,1.8-3.9,3.9c0,1.1,0.4,2.1,1.1,2.8l-5.8,5.8c-0.2,0.2-0.2,0.5,0,0.7
		c0.1,0.1,0.2,0.1,0.4,0.1s0.3,0,0.4-0.1l5.9-5.9c0.6,0.4,1.3,0.6,2,0.6c2.2,0,3.9-1.8,3.9-3.9S39.3,33.1,37.1,33.1z M37.1,40
		c-1.6,0-2.9-1.3-2.9-2.9s1.3-2.9,2.9-2.9S40,35.4,40,37S38.7,40,37.1,40z"/>
	<path fill="#FFFFFF" d="M37.1,17.9c-2.2,0-3.9,1.8-3.9,3.9c0,0.9,0.3,1.7,0.8,2.4l-9.7,9.7c-0.7-0.5-1.5-0.8-2.4-0.8
		c-2.2,0-3.9,1.8-3.9,3.9s1.8,3.9,3.9,3.9s3.9-1.8,3.9-3.9c0-0.9-0.3-1.8-0.9-2.4l9.7-9.7c0.7,0.5,1.5,0.9,2.4,0.9
		c2.2,0,3.9-1.8,3.9-3.9C41,19.7,39.3,17.9,37.1,17.9z M21.9,40C20.3,40,19,38.7,19,37s1.3-2.9,2.9-2.9s2.9,1.3,2.9,2.9
		S23.5,40,21.9,40z M37.1,24.8c-1.6,0-2.9-1.3-2.9-2.9c0-1.6,1.3-2.9,2.9-2.9s2.9,1.3,2.9,2.9C40,23.5,38.7,24.8,37.1,24.8z"/>
</g>
</svg>
