<?xml version="1.0" encoding="utf-8"?>
<!-- Generator: Adobe Illustrator 18.0.0, SVG Export Plug-In . SVG Version: 6.00 Build 0)  -->
<!DOCTYPE svg PUBLIC "-//W3C//DTD SVG 1.1//EN" "http://www.w3.org/Graphics/SVG/1.1/DTD/svg11.dtd">
<svg version="1.1" id="Layer_1" xmlns="http://www.w3.org/2000/svg" xmlns:xlink="http://www.w3.org/1999/xlink" height="59px" width="59px" x="0px" y="0px"
	 viewBox="0 0 59 59" enable-background="new 0 0 59 59" xml:space="preserve">
<g>
	<path fill="#FFFFFF" d="M30,23.3l1.2,0.7c0.1,0,0.1,0,0.2,0c0,0,0.1,0,0.1,0c0.1,0,0.2-0.1,0.2-0.2l0.4-0.8c0,0,0.1,0,0.1,0
		c0.9,0,1.8-0.6,2.4-1.6L37,17l0.7,0.4c0.1,0,0.1,0,0.2,0c0.1,0,0.3-0.1,0.3-0.2c0.1-0.2,0-0.4-0.2-0.5l-0.7-0.4l0.9-1.7
		c0.7-1.3,0.3-2.9-0.9-3.6c-0.3-0.2-0.7-0.3-1.1-0.3c-1,0-1.9,0.6-2.4,1.5L33,14l-0.7-0.4c-0.2-0.1-0.4,0-0.5,0.2
		c-0.1,0.2,0,0.4,0.2,0.5l0.7,0.4L31.9,16c0,0,0,0,0,0s0,0,0,0l-0.4,0.8c0,0,0,0,0,0s0,0,0,0L31,17.6c0,0,0,0,0,0s0,0,0,0l-0.8,1.4
		c-0.6,1.1-0.6,2.2,0,3l-0.4,0.8c0,0.1-0.1,0.2,0,0.3C29.8,23.2,29.9,23.3,30,23.3z M34.6,12.6c0.5-0.9,1.6-1.4,2.5-0.9
		c0.8,0.5,1.1,1.6,0.6,2.6L36.7,16l-3.1-1.6L34.6,12.6z M30.9,19.4l0.6-1.1l0.7,0.4c0.1,0,0.1,0,0.2,0c0.1,0,0.3-0.1,0.3-0.2
		c0.1-0.2,0-0.4-0.2-0.5l-0.7-0.4l0.1-0.2l0.7,0.4c0.1,0,0.1,0,0.2,0c0.1,0,0.3-0.1,0.3-0.2c0.1-0.2,0-0.4-0.2-0.5l-0.7-0.4l0.1-0.2
		l0.7,0.4c0.1,0,0.1,0,0.2,0c0.1,0,0.3-0.1,0.3-0.2c0.1-0.2,0-0.4-0.2-0.5L32.8,16l0.5-1l3.1,1.6L34,21.1c-0.5,0.9-1.2,1.3-2,1.2
		c-0.2,0-0.3,0.1-0.4,0.2l-0.4,0.7l-0.6-0.3l0.4-0.7c0.1-0.1,0.1-0.3-0.1-0.4C30.5,21.2,30.5,20.3,30.9,19.4z"/>
	<path fill="#FFFFFF" d="M29.5,0C13.2,0,0,13.2,0,29.5S13.2,59,29.5,59S59,45.8,59,29.5S45.8,0,29.5,0z M29.5,58
		C13.8,58,1,45.2,1,29.5S13.8,1,29.5,1S58,13.8,58,29.5S45.2,58,29.5,58z"/>
	<path fill="#FFFFFF" d="M41.3,29.9h-2.2v-4c0-0.3-0.2-0.5-0.5-0.5H20.4c-0.3,0-0.5,0.2-0.5,0.5v4h-2.7c-0.3,0-0.5,0.2-0.5,0.5
		s0.2,0.5,0.5,0.5h2.7v14.3c0,2.2,1.4,3.8,3.4,3.8h11.9c2.1,0,3.9-1.7,3.9-3.8V30.9h2.2c0.3,0,0.5-0.2,0.5-0.5S41.6,29.9,41.3,29.9z
		 M38.1,45.3c0,1.5-1.3,2.8-2.9,2.8H23.3c-1.8,0-2.4-1.5-2.4-2.8V26.4h17.1V45.3z"/>
</g>
</svg>
