<?xml version="1.0" encoding="utf-8"?>
<!-- Generator: Adobe Illustrator 18.0.0, SVG Export Plug-In . SVG Version: 6.00 Build 0)  -->
<!DOCTYPE svg PUBLIC "-//W3C//DTD SVG 1.1//EN" "http://www.w3.org/Graphics/SVG/1.1/DTD/svg11.dtd">
<svg version="1.1" id="Layer_1" xmlns="http://www.w3.org/2000/svg" xmlns:xlink="http://www.w3.org/1999/xlink" height="59px" width="59px" x="0px" y="0px"
	 viewBox="0 0 59 59" enable-background="new 0 0 59 59" xml:space="preserve">
<g>
	<path fill="#FFFFFF" d="M29.5,0C13.2,0,0,13.2,0,29.5S13.2,59,29.5,59S59,45.8,59,29.5S45.8,0,29.5,0z M29.5,58
		C13.8,58,1,45.2,1,29.5S13.8,1,29.5,1S58,13.8,58,29.5S45.2,58,29.5,58z"/>
	<path fill="#FFFFFF" d="M26.6,33c-2.5-1.6-1.3-4.3-1.2-4.4c0.1-0.1,0.1-0.3,0-0.5c-0.1-0.1-0.2-0.2-0.4-0.2
		c-4.1-0.3-4.6-4.3-4.6-4.5c0-0.3-0.3-0.5-0.6-0.4c-0.3,0-0.5,0.3-0.4,0.5c0,0,0.5,4.6,4.9,5.3c-0.4,1.4-0.4,3.6,1.8,5
		c0.1,0.1,0.2,0.1,0.3,0.1c0.2,0,0.3-0.1,0.4-0.2C26.9,33.5,26.9,33.2,26.6,33z"/>
	<path fill="#FFFFFF" d="M38.7,18.1c-0.8-2.9-3.3-5-6.2-5c-1,0-2,0.3-3,0.8c-0.9-0.5-1.9-0.8-3-0.8c-2.9,0-5.5,2.1-6.2,5
		c-3.1,0.6-5.3,4-5.3,8c0,1.3,0.2,2.6,0.7,3.8c-0.4,1.1-0.6,2.3-0.6,3.5c0,4,2.3,7.4,5.3,8c0.9,2.7,3.3,4.5,6.1,4.5
		c1.1,0,2.1-0.3,3-0.8c0.9,0.5,2,0.8,3,0.8c2.7,0,5.1-1.8,6.1-4.5c3.1-0.6,5.3-4,5.3-8c0-1.2-0.2-2.4-0.6-3.5
		c0.5-1.2,0.7-2.4,0.7-3.8C44,22.1,41.7,18.7,38.7,18.1z M21.4,41.1c0.5-0.4,1.5-1.4,1.8-2.8c0.3-1.3,0-2.7-0.9-4.2
		c-0.1-0.2-0.5-0.3-0.7-0.2s-0.3,0.5-0.2,0.7c0.8,1.2,1,2.3,0.8,3.4c-0.3,1.3-1.2,2.1-1.6,2.3c-2.6-0.5-4.6-3.5-4.6-7
		c0-1.2,0.2-2.3,0.6-3.4c0-0.1,0-0.3,0-0.4c-0.5-1.1-0.7-2.3-0.7-3.6c0-3.6,2.1-6.7,4.8-7.1c0.2,0,2.9-0.2,4.3,2
		c0.1,0.1,0.3,0.2,0.4,0.2c0.1,0,0.2,0,0.3-0.1c0.2-0.2,0.3-0.5,0.1-0.7c-1.3-2-3.5-2.4-4.6-2.4c0.7-2.3,2.8-4,5.2-4
		c0.9,0,1.7,0.2,2.5,0.6v29.6c-0.8,0.4-1.6,0.7-2.5,0.7C24.2,44.9,22.2,43.4,21.4,41.1z M42.3,30.1c0.4,1,0.6,2.2,0.6,3.4
		c0,3.6-2.1,6.7-4.8,7.1c-0.2,0-0.4,0.2-0.4,0.4c-0.7,2.4-2.8,4.1-5.2,4.1c-0.9,0-1.7-0.2-2.5-0.7v-2.1h1.6c0.3,0,0.5-0.2,0.5-0.5
		s-0.2-0.5-0.5-0.5H30v-0.9h1.6c0.3,0,0.5-0.2,0.5-0.5s-0.2-0.5-0.5-0.5H30v-0.9h1.6c0.3,0,0.5-0.2,0.5-0.5s-0.2-0.5-0.5-0.5H30
		V23.5h1.6v7.3c0,0.3,0.2,0.5,0.5,0.5s0.5-0.2,0.5-0.5V23c0-0.3-0.2-0.5-0.5-0.5H30v-1.2h4.2v14c0,0.3,0.2,0.5,0.5,0.5
		s0.5-0.2,0.5-0.5v-9.7h3.9v1.9h-1.6c-0.3,0-0.5,0.2-0.5,0.5v3.2c0,0.3,0.2,0.5,0.5,0.5s0.5-0.2,0.5-0.5v-2.7h1.6
		c0.3,0,0.5-0.2,0.5-0.5v-2.9c0-0.3-0.2-0.5-0.5-0.5H38v-3.8c0-0.3-0.2-0.5-0.5-0.5S37,20.5,37,20.8v3.8h-1.7v-3.8
		c0-0.3-0.2-0.5-0.5-0.5H30v-2.5h1.6c0.3,0,0.5-0.2,0.5-0.5s-0.2-0.5-0.5-0.5H30v-0.6h1.6c0.3,0,0.5-0.2,0.5-0.5s-0.2-0.5-0.5-0.5
		H30v-0.4c0.8-0.4,1.6-0.6,2.5-0.6c2.5,0,4.8,1.9,5.3,4.6c0,0.2,0.2,0.4,0.4,0.4c2.7,0.3,4.8,3.4,4.8,7.1c0,1.2-0.2,2.5-0.7,3.6
		C42.2,29.8,42.2,29.9,42.3,30.1z"/>
	<circle fill="#FFFFFF" cx="34.7" cy="37.9" r="0.7"/>
	<path fill="#FFFFFF" d="M39.9,33.1h-2.5c-0.3,0-0.5,0.2-0.5,0.5v2.5c0,0.3,0.2,0.5,0.5,0.5h2.5c0.3,0,0.5-0.2,0.5-0.5v-2.5
		C40.4,33.4,40.2,33.1,39.9,33.1z M39.4,35.6H38v-1.5h1.5V35.6z"/>
	<circle fill="#FFFFFF" cx="34.7" cy="41.6" r="0.7"/>
</g>
</svg>
