<?xml version="1.0" encoding="utf-8"?>
<!-- Generator: Adobe Illustrator 18.0.0, SVG Export Plug-In . SVG Version: 6.00 Build 0)  -->
<!DOCTYPE svg PUBLIC "-//W3C//DTD SVG 1.1//EN" "http://www.w3.org/Graphics/SVG/1.1/DTD/svg11.dtd">
<svg version="1.1" id="Layer_1" xmlns="http://www.w3.org/2000/svg" xmlns:xlink="http://www.w3.org/1999/xlink" height="59px" width="59px" x="0px" y="0px"
	 viewBox="0 0 59 59" enable-background="new 0 0 59 59" xml:space="preserve">
<g>
	<path fill="#FFFFFF" d="M29.5,0C13.2,0,0,13.2,0,29.5S13.2,59,29.5,59S59,45.8,59,29.5S45.8,0,29.5,0z M29.5,58
		C13.8,58,1,45.2,1,29.5S13.8,1,29.5,1S58,13.8,58,29.5S45.2,58,29.5,58z"/>
	<path fill="#FFFFFF" d="M30.9,29.8l1.8-1.8c0.1-0.1,0.1-0.4,0-0.5l-1.3-1.3c0.2-0.4,0.4-0.8,0.5-1.6h1.7c0.2,0,0.4-0.2,0.4-0.4v-2
		c0-0.2-0.2-0.4-0.4-0.4h-1.8c-0.1-0.4-0.3-0.8-0.5-1.1l1.3-1.3c0.1-0.1,0.1-0.2,0.1-0.3s0-0.2-0.1-0.3L30.9,17
		c-0.1-0.1-0.4-0.1-0.5,0l-1.3,1.3c-0.4-0.2-0.8-0.4-1.1-0.5V16c0-0.2-0.2-0.4-0.4-0.4h-2.5c-0.2,0-0.4,0.2-0.4,0.4v1.8
		c-0.3,0.1-0.8,0.3-1.1,0.5L22.3,17c-0.1-0.1-0.4-0.1-0.5,0L20,18.8c-0.1,0.1-0.1,0.4,0,0.5l1.3,1.3c-0.2,0.4-0.4,0.8-0.5,1.1H19
		c-0.2,0-0.4,0.2-0.4,0.4v2c0,0.2,0.2,0.4,0.4,0.4h1.8c0.1,0.6,0.3,1.2,0.5,1.6L20,27.4c-0.1,0.1-0.1,0.4,0,0.5l1.8,1.8
		c0.1,0.1,0.4,0.1,0.5,0l1.3-1.3c0.3,0.1,0.6,0.2,0.9,0.3c0.1,0,0.2,0.1,0.2,0.1v1.8c0,0.2,0.2,0.4,0.4,0.4h2.5
		c0.2,0,0.4-0.2,0.4-0.4v-1.8c0.1,0,0.2-0.1,0.2-0.1c0.3-0.1,0.6-0.2,0.9-0.3l1.3,1.3C30.5,29.9,30.8,29.9,30.9,29.8z M29,27.7
		c-0.3,0.2-0.7,0.3-1,0.4c-0.2,0.1-0.4,0.2-0.5,0.2c-0.1,0.1-0.2,0.2-0.2,0.3v1.7h-1.8v-1.7c0-0.1-0.1-0.3-0.2-0.3
		c-0.1-0.1-0.3-0.1-0.5-0.2c-0.3-0.1-0.7-0.3-1-0.4c-0.2-0.1-0.3-0.1-0.5,0.1L22,29l-1.3-1.3l1.2-1.2c0.1-0.1,0.1-0.3,0.1-0.5
		c-0.3-0.4-0.5-1.2-0.6-1.9c0-0.2-0.2-0.3-0.4-0.3h-1.7v-1.3h1.7c0.2,0,0.3-0.1,0.4-0.3c0.1-0.3,0.3-1,0.6-1.5
		c0.1-0.1,0.1-0.3-0.1-0.5l-1.2-1.2l1.3-1.3l1.2,1.2c0.1,0.1,0.3,0.1,0.5,0.1c0.4-0.3,1.2-0.5,1.4-0.6c0.2,0,0.3-0.2,0.3-0.4v-1.7
		h1.8v1.7c0,0.2,0.1,0.3,0.3,0.4c0.2,0,1,0.3,1.4,0.6c0.1,0.1,0.3,0.1,0.5-0.1l1.2-1.2l1.3,1.3l-1.2,1.2c-0.1,0.1-0.1,0.3-0.1,0.5
		c0.3,0.4,0.5,0.9,0.6,1.5c0,0.2,0.2,0.3,0.4,0.3h1.7v1.3h-1.7c-0.2,0-0.4,0.1-0.4,0.3c-0.1,1.1-0.3,1.4-0.6,1.9
		c-0.1,0.1-0.1,0.3,0.1,0.5l1.2,1.2L30.6,29l-1.2-1.2C29.3,27.7,29.1,27.6,29,27.7z"/>
	<path fill="#FFFFFF" d="M26.3,20.2c-1.7,0-3.2,1.4-3.2,3.2s1.4,3.2,3.2,3.2c1.7,0,3.2-1.4,3.2-3.2S28.1,20.2,26.3,20.2z M26.3,25.8
		c-1.3,0-2.4-1.1-2.4-2.4S25,21,26.3,21s2.4,1.1,2.4,2.4S27.7,25.8,26.3,25.8z"/>
	<path fill="#FFFFFF" d="M42.2,22.5c0-4-4.2-11.9-11.9-11.9c-9,0-15.1,5.8-15.1,14.3c0,1.7,0.6,3.6,1.2,5.6
		c1.5,4.6,3.3,10.4-1.1,17.7c-0.1,0.2-0.1,0.5,0.2,0.7c0.1,0,0.2,0.1,0.3,0.1c0.2,0,0.3-0.1,0.4-0.2c4.6-7.7,2.8-13.7,1.2-18.5
		c-0.6-2-1.2-3.7-1.2-5.3c0-8,5.7-13.3,14.1-13.3c7,0,10.9,7.2,10.9,10.9c0,3,1.9,4.9,3.1,6.1c0.4,0.4,1,1,1,1.2
		c0,0.2-0.9,0.9-1.3,1.2c-0.9,0.6-1.8,1.2-1.9,2c-0.2,1.4-0.2,2.6-0.1,3.7c0,2,0,3.5-0.9,4.4c-1.2,1.2-4.3,1.5-9.7,1.2
		c-0.2,0-0.3,0.1-0.4,0.2c-2.5,3.5,0,6.3,0,6.3c0.2,0.2,0.5,0.2,0.7,0c0.2-0.2,0.2-0.5,0-0.7c-0.1-0.1-1.9-2.1-0.1-4.8
		c5.8,0.3,8.7-0.1,10.2-1.5c1.3-1.2,1.3-2.9,1.3-5.1c0-1.1,0-2.3,0.1-3.6c0-0.3,0.9-0.9,1.5-1.3c0.9-0.6,1.8-1.2,1.8-2
		c0-0.6-0.5-1.1-1.3-1.9C43.8,26.8,42.2,25.1,42.2,22.5z"/>
</g>
</svg>
